
<svg version="1.1" id="graphic" xmlns="http://www.w3.org/2000/svg" xmlns:xlink="http://www.w3.org/1999/xlink" x="0px" y="0px"
	 width="245px" height="510.24px" viewBox="72.58 0 245 510.24" style="enable-background:new 72.58 0 245 510.24;"
	 xml:space="preserve">
<style type="text/css">
	.st1 {
			stroke-dasharray: 1500;
			stroke-dashoffset: 0;
			-webkit-animation: dash 4s linear forwards;
			-o-animation: dash 4s linear forwards;
			-moz-animation: dash 4s linear forwards;
			animation: dash 4s linear forwards;
		}

		

		@-webkit-keyframes dash {
			from {
				stroke-dashoffset: 1500;
			}
			to {
				stroke-dashoffset: 0;
			}
		}
<![CDATA[
	.st0{fill:none;stroke:#FFFFFF;stroke-width:3.0778;stroke-miterlimit:10;}
	.st1{fill:none;stroke:#FFFFFF;stroke-width:3;stroke-miterlimit:10;}
]]>
</style>
<path id="logo" class="st1" d="M195.087,18.375c52,0,49.54,0.625,73.165,1.375c36.875,1.625,43.501,19.251,43.501,52.584
	s0,381.333,0,381.333c0,34.667-30.251,34.707-32.665,34.667c0,0-76.003,0-84.001,0"/>
<path id="logo_1_" class="st1" d="M195.666,18.375c-52,0-49.541,0.625-73.166,1.375c-36.875,1.625-43.501,19.251-43.501,52.584
	s0,381.333,0,381.333c0,34.667,30.251,34.707,32.665,34.667c0,0,76.003,0,84.001,0"/>
<path id="logo_2_" class="st1" d="M217.834,35.333c0,1.473-1.193,2.667-2.666,2.667h-40.153c-1.473,0-2.667-1.194-2.667-2.667l0,0
	c0-1.473,1.194-2.667,2.667-2.667h40.153C216.641,32.667,217.834,33.861,217.834,35.333L217.834,35.333z"/>
<path id="logo_3_" class="st1" d="M221.079,465.666c0,5.521-4.478,10-10,10h-32c-5.523,0-10-4.479-10-10v-2c0-5.522,4.477-10,10-10
	h32c5.522,0,10,4.478,10,10V465.666z"/>
<path id="logo_4_" class="st1" d="M300.333,429.808c0,5.812-4.478,10.525-10,10.525h-190c-5.523,0-10-4.713-10-10.525V76.859
	c0-5.813,4.477-10.525,10-10.525h190c5.522,0,10,4.712,10,10.525V429.808z"/>
</svg>
